<mxfile host="Electron" modified="2023-05-03T01:27:59.681Z" agent="Mozilla/5.0 (Windows NT 10.0; Win64; x64) AppleWebKit/537.36 (KHTML, like Gecko) draw.io/21.1.2 Chrome/106.0.5249.199 Electron/21.4.3 Safari/537.36" etag="UMRD1shv0nO01ji5H4-K" version="21.1.2" type="device">
  <diagram name="Page-1" id="46-_QkiRikV98FdvqbhK">
    <mxGraphModel dx="792" dy="845" grid="1" gridSize="10" guides="1" tooltips="1" connect="1" arrows="1" fold="1" page="1" pageScale="1" pageWidth="850" pageHeight="1100" math="0" shadow="0">
      <root>
        <mxCell id="0" />
        <mxCell id="1" parent="0" />
        <mxCell id="jOOAeaNgM_2YfPi9Dlgr-31" style="edgeStyle=orthogonalEdgeStyle;rounded=0;orthogonalLoop=1;jettySize=auto;html=1;entryX=0;entryY=0.5;entryDx=0;entryDy=0;" edge="1" parent="1" source="jOOAeaNgM_2YfPi9Dlgr-9" target="jOOAeaNgM_2YfPi9Dlgr-19">
          <mxGeometry relative="1" as="geometry" />
        </mxCell>
        <mxCell id="jOOAeaNgM_2YfPi9Dlgr-9" value="" style="rounded=0;whiteSpace=wrap;html=1;dashed=1;fillColor=none;strokeColor=#4661e3;" vertex="1" parent="1">
          <mxGeometry x="200" y="270" width="360" height="210" as="geometry" />
        </mxCell>
        <mxCell id="jOOAeaNgM_2YfPi9Dlgr-1" value="" style="sketch=0;points=[[0,0,0],[0.25,0,0],[0.5,0,0],[0.75,0,0],[1,0,0],[0,1,0],[0.25,1,0],[0.5,1,0],[0.75,1,0],[1,1,0],[0,0.25,0],[0,0.5,0],[0,0.75,0],[1,0.25,0],[1,0.5,0],[1,0.75,0]];outlineConnect=0;fontColor=#232F3E;gradientColor=#4D72F3;gradientDirection=north;fillColor=#3334B9;strokeColor=#ffffff;dashed=0;verticalLabelPosition=bottom;verticalAlign=top;align=center;html=1;fontSize=12;fontStyle=0;aspect=fixed;shape=mxgraph.aws4.resourceIcon;resIcon=mxgraph.aws4.codecommit;" vertex="1" parent="1">
          <mxGeometry x="200" y="270" width="50" height="50" as="geometry" />
        </mxCell>
        <mxCell id="jOOAeaNgM_2YfPi9Dlgr-11" value="" style="sketch=0;pointerEvents=1;shadow=0;dashed=0;html=1;strokeColor=none;fillColor=#4764e6;labelPosition=center;verticalLabelPosition=bottom;verticalAlign=top;align=center;outlineConnect=0;shape=mxgraph.veeam2.data_file;" vertex="1" parent="1">
          <mxGeometry x="265" y="370" width="28.000000000000004" height="39" as="geometry" />
        </mxCell>
        <mxCell id="jOOAeaNgM_2YfPi9Dlgr-12" value="" style="sketch=0;pointerEvents=1;shadow=0;dashed=0;html=1;strokeColor=none;fillColor=#4764e6;labelPosition=center;verticalLabelPosition=bottom;verticalAlign=top;align=center;outlineConnect=0;shape=mxgraph.veeam2.data_file;" vertex="1" parent="1">
          <mxGeometry x="305" y="370" width="28.000000000000004" height="39" as="geometry" />
        </mxCell>
        <mxCell id="jOOAeaNgM_2YfPi9Dlgr-13" value="" style="sketch=0;pointerEvents=1;shadow=0;dashed=0;html=1;strokeColor=none;fillColor=#4764e6;labelPosition=center;verticalLabelPosition=bottom;verticalAlign=top;align=center;outlineConnect=0;shape=mxgraph.veeam2.data_file;" vertex="1" parent="1">
          <mxGeometry x="345" y="370" width="28.000000000000004" height="39" as="geometry" />
        </mxCell>
        <mxCell id="jOOAeaNgM_2YfPi9Dlgr-14" value="Source code" style="text;html=1;align=center;verticalAlign=middle;resizable=0;points=[];autosize=1;strokeColor=none;fillColor=none;" vertex="1" parent="1">
          <mxGeometry x="274" y="420" width="90" height="30" as="geometry" />
        </mxCell>
        <mxCell id="jOOAeaNgM_2YfPi9Dlgr-16" value="buildspec.yml" style="shadow=0;dashed=0;html=1;strokeColor=none;fillColor=#4495D1;labelPosition=center;verticalLabelPosition=bottom;verticalAlign=top;align=center;outlineConnect=0;shape=mxgraph.veeam.data_file;" vertex="1" parent="1">
          <mxGeometry x="430" y="350" width="54.35" height="70" as="geometry" />
        </mxCell>
        <mxCell id="jOOAeaNgM_2YfPi9Dlgr-17" value="...&lt;br&gt;&lt;br&gt;+" style="text;html=1;align=center;verticalAlign=middle;resizable=0;points=[];autosize=1;strokeColor=none;fillColor=none;fontSize=20;" vertex="1" parent="1">
          <mxGeometry x="380" y="363" width="40" height="90" as="geometry" />
        </mxCell>
        <mxCell id="jOOAeaNgM_2YfPi9Dlgr-18" value="CodeCommit&lt;br style=&quot;font-size: 25px;&quot;&gt;(Source)" style="text;html=1;align=center;verticalAlign=middle;resizable=0;points=[];autosize=1;strokeColor=none;fillColor=none;fontSize=25;fontStyle=1" vertex="1" parent="1">
          <mxGeometry x="293" y="270" width="180" height="70" as="geometry" />
        </mxCell>
        <mxCell id="jOOAeaNgM_2YfPi9Dlgr-42" style="edgeStyle=orthogonalEdgeStyle;rounded=0;orthogonalLoop=1;jettySize=auto;html=1;" edge="1" parent="1" source="jOOAeaNgM_2YfPi9Dlgr-19" target="jOOAeaNgM_2YfPi9Dlgr-41">
          <mxGeometry relative="1" as="geometry" />
        </mxCell>
        <mxCell id="jOOAeaNgM_2YfPi9Dlgr-47" style="edgeStyle=orthogonalEdgeStyle;rounded=0;orthogonalLoop=1;jettySize=auto;html=1;exitX=0.75;exitY=1;exitDx=0;exitDy=0;" edge="1" parent="1" source="jOOAeaNgM_2YfPi9Dlgr-19" target="jOOAeaNgM_2YfPi9Dlgr-44">
          <mxGeometry relative="1" as="geometry" />
        </mxCell>
        <mxCell id="jOOAeaNgM_2YfPi9Dlgr-19" value="" style="rounded=0;whiteSpace=wrap;html=1;dashed=1;fillColor=none;strokeColor=#4661e3;" vertex="1" parent="1">
          <mxGeometry x="620" y="270" width="360" height="210" as="geometry" />
        </mxCell>
        <mxCell id="jOOAeaNgM_2YfPi9Dlgr-27" value="CodeBuild" style="text;html=1;align=center;verticalAlign=middle;resizable=0;points=[];autosize=1;strokeColor=none;fillColor=none;fontSize=25;fontStyle=1" vertex="1" parent="1">
          <mxGeometry x="728" y="285" width="150" height="40" as="geometry" />
        </mxCell>
        <mxCell id="jOOAeaNgM_2YfPi9Dlgr-28" value="" style="sketch=0;points=[[0,0,0],[0.25,0,0],[0.5,0,0],[0.75,0,0],[1,0,0],[0,1,0],[0.25,1,0],[0.5,1,0],[0.75,1,0],[1,1,0],[0,0.25,0],[0,0.5,0],[0,0.75,0],[1,0.25,0],[1,0.5,0],[1,0.75,0]];outlineConnect=0;fontColor=#232F3E;gradientColor=#4D72F3;gradientDirection=north;fillColor=#3334B9;strokeColor=#ffffff;dashed=0;verticalLabelPosition=bottom;verticalAlign=top;align=center;html=1;fontSize=12;fontStyle=0;aspect=fixed;shape=mxgraph.aws4.resourceIcon;resIcon=mxgraph.aws4.codebuild;" vertex="1" parent="1">
          <mxGeometry x="620" y="270" width="50" height="50" as="geometry" />
        </mxCell>
        <mxCell id="jOOAeaNgM_2YfPi9Dlgr-29" value="CodeBuild (Container)&lt;br&gt;running instructions from &lt;b&gt;buildspec.yml&lt;/b&gt;" style="outlineConnect=0;dashed=0;verticalLabelPosition=bottom;verticalAlign=top;align=center;html=1;shape=mxgraph.aws3.ec2_compute_container;fillColor=#F58534;gradientColor=none;" vertex="1" parent="1">
          <mxGeometry x="739.79" y="354.88" width="120.43" height="69.25" as="geometry" />
        </mxCell>
        <mxCell id="jOOAeaNgM_2YfPi9Dlgr-33" style="edgeStyle=orthogonalEdgeStyle;rounded=0;orthogonalLoop=1;jettySize=auto;html=1;entryX=0.25;entryY=1;entryDx=0;entryDy=0;" edge="1" parent="1" source="jOOAeaNgM_2YfPi9Dlgr-30" target="jOOAeaNgM_2YfPi9Dlgr-19">
          <mxGeometry relative="1" as="geometry">
            <Array as="points">
              <mxPoint x="341" y="530" />
              <mxPoint x="710" y="530" />
            </Array>
          </mxGeometry>
        </mxCell>
        <mxCell id="jOOAeaNgM_2YfPi9Dlgr-30" value="Docker Image&lt;br&gt;(Prepackaged or Custom)" style="image;sketch=0;aspect=fixed;html=1;points=[];align=center;fontSize=12;image=img/lib/mscae/Docker.svg;" vertex="1" parent="1">
          <mxGeometry x="261.46" y="610" width="158.54" height="130" as="geometry" />
        </mxCell>
        <mxCell id="jOOAeaNgM_2YfPi9Dlgr-34" value="S3 Bucket &lt;b&gt;(Cache)&lt;/b&gt;&lt;br&gt;(Optional)" style="sketch=0;outlineConnect=0;fontColor=#232F3E;gradientColor=none;fillColor=#3F8624;strokeColor=none;dashed=0;verticalLabelPosition=bottom;verticalAlign=top;align=center;html=1;fontSize=12;fontStyle=0;aspect=fixed;pointerEvents=1;shape=mxgraph.aws4.bucket;" vertex="1" parent="1">
          <mxGeometry x="762.5" y="662" width="75" height="78" as="geometry" />
        </mxCell>
        <mxCell id="jOOAeaNgM_2YfPi9Dlgr-37" value="" style="endArrow=classic;html=1;rounded=0;" edge="1" parent="1">
          <mxGeometry width="50" height="50" relative="1" as="geometry">
            <mxPoint x="780" y="500" as="sourcePoint" />
            <mxPoint x="780" y="650" as="targetPoint" />
          </mxGeometry>
        </mxCell>
        <mxCell id="jOOAeaNgM_2YfPi9Dlgr-38" value="" style="endArrow=classic;html=1;rounded=0;" edge="1" parent="1">
          <mxGeometry width="50" height="50" relative="1" as="geometry">
            <mxPoint x="820" y="650" as="sourcePoint" />
            <mxPoint x="820" y="500" as="targetPoint" />
          </mxGeometry>
        </mxCell>
        <mxCell id="jOOAeaNgM_2YfPi9Dlgr-39" value="Retrive" style="text;html=1;align=center;verticalAlign=middle;resizable=0;points=[];autosize=1;strokeColor=none;fillColor=none;" vertex="1" parent="1">
          <mxGeometry x="814" y="570" width="60" height="30" as="geometry" />
        </mxCell>
        <mxCell id="jOOAeaNgM_2YfPi9Dlgr-40" value="store&lt;br&gt;reusable pieces" style="text;html=1;align=center;verticalAlign=middle;resizable=0;points=[];autosize=1;strokeColor=none;fillColor=none;" vertex="1" parent="1">
          <mxGeometry x="680" y="565" width="110" height="40" as="geometry" />
        </mxCell>
        <mxCell id="jOOAeaNgM_2YfPi9Dlgr-41" value="S3 Bucket" style="sketch=0;outlineConnect=0;fontColor=#232F3E;gradientColor=none;fillColor=#3F8624;strokeColor=none;dashed=0;verticalLabelPosition=bottom;verticalAlign=top;align=center;html=1;fontSize=12;fontStyle=0;aspect=fixed;pointerEvents=1;shape=mxgraph.aws4.bucket;" vertex="1" parent="1">
          <mxGeometry x="1160" y="336" width="75" height="78" as="geometry" />
        </mxCell>
        <mxCell id="jOOAeaNgM_2YfPi9Dlgr-43" value="Artifacts" style="text;html=1;align=center;verticalAlign=middle;resizable=0;points=[];autosize=1;strokeColor=none;fillColor=none;" vertex="1" parent="1">
          <mxGeometry x="1040" y="350" width="70" height="30" as="geometry" />
        </mxCell>
        <mxCell id="jOOAeaNgM_2YfPi9Dlgr-44" value="" style="rounded=0;whiteSpace=wrap;html=1;dashed=1;fillColor=none;strokeColor=#4661e3;" vertex="1" parent="1">
          <mxGeometry x="1010" y="641" width="250" height="120" as="geometry" />
        </mxCell>
        <mxCell id="jOOAeaNgM_2YfPi9Dlgr-45" value="Amazon S3" style="sketch=0;points=[[0,0,0],[0.25,0,0],[0.5,0,0],[0.75,0,0],[1,0,0],[0,1,0],[0.25,1,0],[0.5,1,0],[0.75,1,0],[1,1,0],[0,0.25,0],[0,0.5,0],[0,0.75,0],[1,0.25,0],[1,0.5,0],[1,0.75,0]];outlineConnect=0;fontColor=#232F3E;gradientColor=#60A337;gradientDirection=north;fillColor=#277116;strokeColor=#ffffff;dashed=0;verticalLabelPosition=bottom;verticalAlign=top;align=center;html=1;fontSize=12;fontStyle=0;aspect=fixed;shape=mxgraph.aws4.resourceIcon;resIcon=mxgraph.aws4.s3;" vertex="1" parent="1">
          <mxGeometry x="1030" y="656" width="78" height="78" as="geometry" />
        </mxCell>
        <mxCell id="jOOAeaNgM_2YfPi9Dlgr-46" value="CloudWatch Logs" style="sketch=0;points=[[0,0,0],[0.25,0,0],[0.5,0,0],[0.75,0,0],[1,0,0],[0,1,0],[0.25,1,0],[0.5,1,0],[0.75,1,0],[1,1,0],[0,0.25,0],[0,0.5,0],[0,0.75,0],[1,0.25,0],[1,0.5,0],[1,0.75,0]];points=[[0,0,0],[0.25,0,0],[0.5,0,0],[0.75,0,0],[1,0,0],[0,1,0],[0.25,1,0],[0.5,1,0],[0.75,1,0],[1,1,0],[0,0.25,0],[0,0.5,0],[0,0.75,0],[1,0.25,0],[1,0.5,0],[1,0.75,0]];outlineConnect=0;fontColor=#232F3E;gradientColor=#F34482;gradientDirection=north;fillColor=#BC1356;strokeColor=#ffffff;dashed=0;verticalLabelPosition=bottom;verticalAlign=top;align=center;html=1;fontSize=12;fontStyle=0;aspect=fixed;shape=mxgraph.aws4.resourceIcon;resIcon=mxgraph.aws4.cloudwatch_2;" vertex="1" parent="1">
          <mxGeometry x="1160" y="656" width="78" height="78" as="geometry" />
        </mxCell>
        <mxCell id="jOOAeaNgM_2YfPi9Dlgr-48" value="Store logs" style="text;html=1;align=center;verticalAlign=middle;resizable=0;points=[];autosize=1;strokeColor=none;fillColor=none;" vertex="1" parent="1">
          <mxGeometry x="990" y="535" width="80" height="30" as="geometry" />
        </mxCell>
      </root>
    </mxGraphModel>
  </diagram>
</mxfile>
